<?xml version="1.0" encoding="UTF-8" standalone="no"?><!DOCTYPE svg PUBLIC "-//W3C//DTD SVG 1.1//EN" "http://www.w3.org/Graphics/SVG/1.1/DTD/svg11.dtd"><svg width="100%" height="100%" viewBox="0 0 40 40" version="1.1" xmlns="http://www.w3.org/2000/svg" xmlns:xlink="http://www.w3.org/1999/xlink" xml:space="preserve" style="fill-rule:evenodd;clip-rule:evenodd;stroke-linejoin:round;stroke-miterlimit:1.41421;"><path d="M23.7,27.2c-0.2,0 -0.5,-0.1 -0.7,-0.2l-2.8,-1.4c-0.1,-0.1 -0.3,-0.1 -0.4,0l-2.8,1.4c-0.6,0.3 -1.4,0.1 -1.8,-0.4c-0.3,-0.3 -0.4,-0.8 -0.3,-1.2l0.4,-3.1c0,-0.2 0,-0.3 -0.1,-0.4l-2.2,-2.2c-0.4,-0.4 -0.5,-1 -0.4,-1.5c0.2,-0.5 0.6,-0.9 1.2,-1l3.1,-0.5c0.2,0 0.3,-0.1 0.4,-0.3l1.4,-2.8c0.3,-0.5 0.8,-0.8 1.3,-0.8c0.5,0 1.1,0.3 1.3,0.8l1.4,2.8c0.1,0.1 0.2,0.2 0.4,0.3l3.1,0.5c0.6,0.1 1,0.5 1.2,1c0.2,0.5 0,1.1 -0.4,1.5l-2.2,2.2c-0.1,0.1 -0.2,0.3 -0.1,0.4l0.5,3.1c0.1,0.4 -0.1,0.9 -0.3,1.2c-0.4,0.4 -0.8,0.6 -1.2,0.6Z" style="fill:#000;fill-rule:nonzero;"/></svg>