<?xml version="1.0" encoding="UTF-8" standalone="no"?><!DOCTYPE svg PUBLIC "-//W3C//DTD SVG 1.1//EN" "http://www.w3.org/Graphics/SVG/1.1/DTD/svg11.dtd"><svg width="100%" height="100%" viewBox="0 0 399 750" version="1.1" xmlns="http://www.w3.org/2000/svg" xmlns:xlink="http://www.w3.org/1999/xlink" xml:space="preserve" style="fill-rule:evenodd;clip-rule:evenodd;stroke-linecap:round;stroke-linejoin:round;stroke-miterlimit:1.41421;"><g><path d="M339.127,0.017l-25.753,100.326l85.372,-66.079l0,-34.257l-59.619,0.01Z" style="fill:#c54b00;stroke-width:0.75px;stroke:#c54b00;"/><path d="M398.74,131.773l-19.765,-5.691l-65.672,-25.675l85.447,-66.156l-0.01,97.522Z" style="fill:#cb4803;stroke-width:0.75px;stroke:#cb4803;"/><path d="M398.751,208.984l-20.046,-83.015l20.06,5.801l-0.014,77.214Z" style="fill:#d84709;stroke-width:0.75px;stroke:#d84709;"/><path d="M398.763,234.507l-0.013,-25.491l-20.002,-82.955l-65.405,-25.62l85.42,134.066Z" style="fill:#e24b07;stroke-width:0.75px;stroke:#e24b07;"/><path d="M209.854,57.796l103.516,42.629l25.764,-100.414l-44.504,-0.01l-84.776,57.795Z" style="fill:#e65a00;stroke-width:0.75px;stroke:#e65a00;"/><path d="M217.663,0.017l-7.843,57.796l84.822,-57.8l-76.979,0.004Z" style="fill:#ed6300;stroke-width:0.75px;stroke:#ed6300;"/><path d="M172.602,0.009l37.21,57.799l7.869,-57.805l-45.079,0.006Z" style="fill:#f56900;stroke-width:0.75px;stroke:#f56900;"/><path d="M77.611,0.008l132.172,57.801l-37.162,-57.797l-95.01,-0.004Z" style="fill:#f76a00;stroke-width:0.75px;stroke:#f76a00;"/><path d="M255.902,183.484l57.497,-82.937l85.344,133.926l0.014,10.551l-142.855,-61.54Z" style="fill:#f15207;stroke-width:0.75px;stroke:#f15207;"/><path d="M247.777,232.794l8.127,-49.31l142.853,61.549l-150.98,-12.239Z" style="fill:#f7520c;stroke-width:0.75px;stroke:#f7520c;"/><path d="M301.841,310.428l-53.913,-77.616l150.816,12.191l0.009,8.925l-96.912,56.5Z" style="fill:#f64b14;stroke-width:0.75px;stroke:#f64b14;"/><path d="M398.757,390.162l-96.893,-79.752l96.89,-56.486l0.003,136.238Z" style="fill:#f94814;stroke-width:0.75px;stroke:#f94814;"/><path d="M268.93,391.694l32.858,-81.331l96.979,79.808l-129.837,1.523Z" style="fill:#f8461b;stroke-width:0.75px;stroke:#f8461b;"/><path d="M209.788,307.836l38.065,-75.199l53.95,77.731l-32.907,81.384l-59.108,-83.916Z" style="fill:#fa4e14;stroke-width:0.75px;stroke:#fa4e14;"/><path d="M124.284,427.458l85.505,-119.609l59.08,83.829l-144.585,35.78Z" style="fill:#fa5b02;stroke-width:0.75px;stroke:#fa5b02;"/><path d="M238.174,464.602l30.753,-72.963l-144.626,35.835l76.874,0.945l36.999,36.183Z" style="fill:#f96008;stroke-width:0.75px;stroke:#f96008;"/><path d="M398.753,401.524l-160.63,63.348l30.752,-73.177l129.883,-1.548l-0.005,11.377Z" style="fill:#f8461b;stroke-width:0.75px;stroke:#f8461b;"/><path d="M361.838,499.927l37.316,-83.092l-0.421,85.212l-36.895,-2.12Z" style="fill:#eb4817;stroke-width:0.75px;stroke:#eb4817;"/><path d="M308.322,437.202l90.427,-35.684l-0.037,15.946l-36.85,82.405l-53.54,-62.667Z" style="fill:#f84914;stroke-width:0.75px;stroke:#f84914;"/><path d="M238.229,464.759l109.83,70.831l13.749,-35.783l-53.483,-62.602l-70.096,27.554Z" style="fill:#f74519;stroke-width:0.75px;stroke:#f74519;"/><path d="M398.747,577.768l-50.683,-42.162l13.708,-35.691l36.992,2.138l-0.017,75.715Z" style="fill:#f44719;stroke-width:0.75px;stroke:#f44719;"/><path d="M315.711,660.657l32.343,-125.055l50.699,42.179l-83.042,82.876Z" style="fill:#e64a11;stroke-width:0.75px;stroke:#e64a11;"/><path d="M398.745,681.755l-83.031,-21.086l83.048,-82.972l-0.017,104.058Z" style="fill:#d34611;stroke-width:0.75px;stroke:#d34611;"/><path d="M268.303,611.588l47.39,49.076l32.349,-125.014l-79.739,75.938Z" style="fill:#e7520d;stroke-width:0.75px;stroke:#e7520d;"/><path d="M201.161,558.771l146.92,-23.186l-79.805,76.005l-67.115,-52.819Z" style="fill:#ef590f;stroke-width:0.75px;stroke:#ef590f;"/><path d="M238.134,464.696l-36.97,94.063l146.905,-23.16l-109.935,-70.903Z" style="fill:#f65711;stroke-width:0.75px;stroke:#f65711;"/><path d="M313.481,100.473l-57.738,83.182l-45.917,-125.901l103.655,42.719Z" style="fill:#f35f00;stroke-width:0.75px;stroke:#f35f00;"/><path d="M131.809,230.596l77.947,77.304l38.04,-75.145l8.056,-49.187l-124.043,47.028Z" style="fill:#fa5e03;stroke-width:0.75px;stroke:#fa5e03;"/><path d="M154.556,130.904l55.276,-73.147l45.963,125.802l-101.239,-52.655Z" style="fill:#fa6800;stroke-width:0.75px;stroke:#fa6800;"/><path d="M131.816,230.573l22.753,-99.69l101.392,52.748l-124.145,46.942Z" style="fill:#f96500;stroke-width:0.75px;stroke:#f96500;"/><path d="M357.81,750.015l40.93,-48.859l0.014,48.854l-40.944,0.005Z" style="fill:#8e350c;stroke-width:0.75px;stroke:#8e350c;"/><path d="M315.731,660.68l42.072,89.353l40.947,-48.905l-0.011,-19.368l-83.008,-21.08Z" style="fill:#b23f0b;stroke-width:0.75px;stroke:#b23f0b;"/><path d="M285.652,750.002l30.193,-89.079l41.983,89.064l-72.176,0.015Z" style="fill:#ad4c02;stroke-width:0.75px;stroke:#ad4c02;"/><path d="M255.833,709.373l60.03,-48.56l-30.242,89.234l-29.788,-40.674Z" style="fill:#be5900;stroke-width:0.75px;stroke:#be5900;"/><path d="M268.288,611.592l-12.484,97.764l60.02,-48.563l-47.536,-49.201Z" style="fill:#da5b01;stroke-width:0.75px;stroke:#da5b01;"/><path d="M176.429,680.103l12.619,69.913l66.838,-40.471l-79.457,-29.442Z" style="fill:#da8700;stroke-width:0.75px;stroke:#da8700;"/><path d="M285.655,750.03l-29.888,-40.432l-66.702,40.413l96.59,0.019Z" style="fill:#c26b00;stroke-width:0.75px;stroke:#c26b00;"/><path d="M176.487,680.029l91.823,-68.244l-12.525,97.729l-79.298,-29.485Z" style="fill:#de7500;stroke-width:0.75px;stroke:#de7500;"/><path d="M201.181,558.817l67.231,52.91l-91.98,68.332l24.749,-121.242Z" style="fill:#f47800;stroke-width:0.75px;stroke:#f47800;"/><path d="M135.289,750l41.162,-69.71l12.601,69.695l-53.763,0.015Z" style="fill:#de9300;stroke-width:0.75px;stroke:#de9300;"/><path d="M95.206,680.44l81.337,-0.344l-41.274,69.936l-40.063,-69.592Z" style="fill:#f3a900;stroke-width:0.75px;stroke:#f3a900;"/><path d="M87.71,749.998l7.492,-69.586l40.053,69.604l-47.545,-0.018Z" style="fill:#eeaf00;stroke-width:0.75px;stroke:#eeaf00;"/><path d="M14.496,705.261l80.725,-24.98l-7.494,69.74l-23.465,-0.005l-49.766,-44.755Z" style="fill:#fcc000;stroke-width:0.75px;stroke:#fcc000;"/><path d="M102.438,546.531l-7.138,133.921l81.363,-0.354l-74.225,-133.567Z" style="fill:#fca900;stroke-width:0.75px;stroke:#fca900;"/><path d="M201.173,558.798l-24.682,120.986l-74.071,-133.302l98.753,12.316Z" style="fill:#fb8f00;stroke-width:0.75px;stroke:#fb8f00;"/><path d="M9.591,578.029l85.718,102.52l7.19,-134.056l-92.908,31.536Z" style="fill:#fcb700;stroke-width:0.75px;stroke:#fcb700;"/><path d="M14.581,705.224l-5.021,-127.123l85.575,102.237l-80.554,24.886Z" style="fill:#fdc400;stroke-width:0.75px;stroke:#fdc400;"/><path d="M0.027,698.552l14.498,6.729l49.719,44.742l-64.245,-0.004l0.028,-51.467Z" style="fill:#fbc700;stroke-width:0.75px;stroke:#fbc700;"/><path d="M9.57,577.944l-9.569,-3.538l0.015,124.159l14.541,6.591l-4.987,-127.212Z" style="fill:#fdc900;stroke-width:0.75px;stroke:#fdc900;"/><path d="M102.914,546.705l98.323,-118.276l36.977,36.542l-37.028,93.787l-98.272,-12.053Z" style="fill:#fb7a00;stroke-width:0.75px;stroke:#fb7a00;"/><path d="M94.002,474.288l30.257,-46.807l76.957,0.963l-98.56,118.351l-8.654,-72.507Z" style="fill:#fb8300;stroke-width:0.75px;stroke:#fb8300;"/><path d="M51.584,497.848l42.26,-23.576l-75.004,9.234l32.744,14.342Z" style="fill:#fca600;stroke-width:0.75px;stroke:#fca600;"/><path d="M9.83,577.914l41.787,-80.073l50.976,48.721l-92.763,31.352Z" style="fill:#fcae00;stroke-width:0.75px;stroke:#fcae00;"/><path d="M93.988,474.157l-42.345,23.657l50.986,48.929l-8.641,-72.586Z" style="fill:#fca100;stroke-width:0.75px;stroke:#fca100;"/><path d="M9.666,578.014l8.383,-94.61l33.566,14.439l-41.949,80.171Z" style="fill:#fcb200;stroke-width:0.75px;stroke:#fcb200;"/><path d="M0.005,468.618l18.253,14.789l-18.039,8.63l-0.214,-23.419Z" style="fill:#fcb500;stroke-width:0.75px;stroke:#fcb500;"/><path d="M0.008,574.415l0.017,-82.343l18.004,-8.563l-8.352,94.431l-9.669,-3.525Z" style="fill:#fcbb00;stroke-width:0.75px;stroke:#fcbb00;"/><path d="M18.187,375.646l0.048,107.928l75.736,-9.167l-75.784,-98.761Z" style="fill:#fb9c00;stroke-width:0.75px;stroke:#fb9c00;"/><path d="M-0.025,384.178l18.18,-8.445l0.05,107.649l-18.195,-14.773l-0.035,-84.431Z" style="fill:#fb9f00;stroke-width:0.75px;stroke:#fb9f00;"/><path d="M93.945,474.39l-75.893,-98.885l106.198,51.965l-30.305,46.92Z" style="fill:#fb8c00;stroke-width:0.75px;stroke:#fb8c00;"/><path d="M98.519,326.899l-0.655,38.046l26.461,62.482l85.33,-119.655l-111.136,19.127Z" style="fill:#fa6d00;stroke-width:0.75px;stroke:#fa6d00;"/><path d="M131.837,230.86l-33.391,96.082l111.183,-19.174l-77.792,-76.908Z" style="fill:#fa6600;stroke-width:0.75px;stroke:#fa6600;"/><path d="M18.117,375.531l80.415,-48.708l-0.665,38.118l26.471,62.49l-106.221,-51.9Z" style="fill:#fb7d00;stroke-width:0.75px;stroke:#fb7d00;"/><path d="M0.02,257.804l18.158,117.714l80.298,-48.647l-98.456,-69.067Z" style="fill:#f97c00;stroke-width:0.75px;stroke:#f97c00;"/><path d="M0.063,363.284l0,20.793l18.05,-8.328l-18.05,-12.465Z" style="fill:#f39400;stroke-width:0.75px;stroke:#f39400;"/><path d="M0.005,257.849l0.082,105.556l18.041,12.385l-18.123,-117.941Z" style="fill:#f58600;stroke-width:0.75px;stroke:#f58600;"/><path d="M0.037,20.304l-0.047,-20.283l56.75,0.019l-56.703,20.264Z" style="fill:#e36d00;stroke-width:0.75px;stroke:#e36d00;"/><path d="M67.875,0.038l-11.342,0.039l-56.521,20.265l-0.003,44.044l67.766,7.057l0.1,-71.405Z" style="fill:#f16e00;stroke-width:0.75px;stroke:#f16e00;"/><path d="M0.037,127.082l67.732,-55.639l-67.747,-7.016l0.015,62.655Z" style="fill:#f37000;stroke-width:0.75px;stroke:#f37000;"/><path d="M0.028,257.772l154.428,-126.818l-22.674,99.801l-33.328,96.107l-98.426,-69.09Z" style="fill:#fa6d00;stroke-width:0.75px;stroke:#fa6d00;"/><path d="M0.173,127.193l-0.154,130.551l154.459,-126.828l55.325,-73.061l-132.242,-57.848l-9.661,0.041l-0.13,71.38l-67.597,55.765Z" style="fill:#fa6f00;stroke-width:0.75px;stroke:#fa6f00;"/></g></svg>