<?xml version="1.0" encoding="UTF-8" standalone="no"?><!DOCTYPE svg PUBLIC "-//W3C//DTD SVG 1.1//EN" "http://www.w3.org/Graphics/SVG/1.1/DTD/svg11.dtd"><svg width="100%" height="100%" viewBox="0 0 68 67" version="1.1" xmlns="http://www.w3.org/2000/svg" xmlns:xlink="http://www.w3.org/1999/xlink" xml:space="preserve" style="fill-rule:evenodd;clip-rule:evenodd;stroke-linejoin:round;stroke-miterlimit:1.41421;"><path d="M60.141,41.478l-5.868,-0.093c-0.003,0 -0.004,-0.002 -0.007,-0.002c-0.005,0 -0.008,0.002 -0.012,0.002c-4.556,-0.141 -6.203,-0.115 -6.219,-0.116c-0.401,0.007 -0.734,0.151 -0.931,0.405c-0.199,0.255 -0.259,0.611 -0.168,1.002c0,0 0.257,1.115 1.309,5.862c0.785,3.532 1.637,10.086 -1.462,14.278c-1.504,2.033 -3.705,3.179 -6.54,3.402c-0.032,0.003 -0.063,0.005 -0.094,0.005c-2.126,0 -2.714,-2.724 -3.691,-7.235c-1.335,-6.181 -3.355,-15.523 -10.017,-20.857c-1.268,-1.016 -2.781,-1.701 -4.469,-2.319c-0.914,2.79 -3.54,4.812 -6.632,4.812l-8.358,0c-3.85,0.001 -6.982,-3.13 -6.982,-6.981l0,-25.443c0,-3.851 3.132,-6.983 6.982,-6.983l8.358,0c3.283,0 6.036,2.281 6.778,5.34l1.194,0c1.405,0 3.634,-0.565 4.869,-1.234c0.145,-0.079 3.588,-1.94 6.553,-2.964c5.159,-1.781 10.007,-2.359 14.124,-2.359c7.351,0 12.372,1.841 12.672,1.953c2.092,0.715 3.419,2.156 3.64,3.955c0.109,0.9 -0.02,2.094 -1.004,3.219c1.325,1.248 2.1,3.001 2.1,4.842c0,1.572 -0.535,3.048 -1.502,4.224c1.422,1.308 2.253,3.155 2.253,5.119c0,1.963 -0.819,3.793 -2.209,5.09c0.001,0.012 0.003,0.023 0.004,0.036c1.664,1.382 2.688,3.457 2.688,5.67c0,4.064 -3.293,7.37 -7.359,7.37Zm-40.207,-33.278c0,-2.534 -2.061,-4.594 -4.594,-4.594l-8.358,0c-2.534,0 -4.595,2.06 -4.595,4.594l0,25.443c0,2.534 2.061,4.594 4.595,4.594l8.358,0c2.533,0 4.594,-2.06 4.594,-4.594l0,-25.443Zm42.375,21.431c-0.015,-0.009 -0.03,-0.019 -0.046,-0.028c-0.461,-0.165 -0.794,-0.602 -0.794,-1.12c0,-0.422 0.219,-0.791 0.547,-1.002c0.056,-0.043 0.111,-0.082 0.174,-0.116c1.502,-0.795 2.435,-2.347 2.435,-4.05c0,-1.512 -0.743,-2.922 -1.989,-3.774c-0.016,-0.012 -0.028,-0.025 -0.043,-0.037c-0.091,-0.035 -0.174,-0.083 -0.253,-0.14c-0.14,-0.078 -0.265,-0.183 -0.367,-0.318c-0.401,-0.522 -0.3,-1.272 0.223,-1.672c1.066,-0.815 1.676,-2.054 1.676,-3.401c0,-1.374 -0.667,-2.673 -1.787,-3.474c-0.03,-0.021 -0.055,-0.048 -0.083,-0.073c-0.176,-0.062 -0.333,-0.163 -0.461,-0.296c-0.105,-0.08 -0.201,-0.174 -0.275,-0.292c-0.359,-0.552 -0.203,-1.293 0.35,-1.651c1.169,-0.761 1.244,-1.462 1.179,-1.986c-0.148,-1.216 -1.477,-1.796 -2.074,-1.998c-0.114,-0.044 -11.685,-4.26 -25.21,0.413c-2.777,0.959 -6.161,2.788 -6.195,2.805c-1.577,0.856 -4.214,1.525 -6.007,1.525l-0.989,0l0,24.455c2.035,0.724 3.97,1.553 5.612,2.866c7.325,5.864 9.452,15.704 10.859,22.217c0.456,2.105 1.017,4.701 1.505,5.332c2.022,-0.209 3.517,-1.003 4.566,-2.42c1.853,-2.507 2.236,-7.005 1.051,-12.341c-1.047,-4.717 -1.303,-5.835 -1.305,-5.842c-0.252,-1.091 -0.029,-2.187 0.612,-3.008c0.64,-0.822 1.651,-1.303 2.772,-1.323c0.017,0 0.153,-0.003 0.438,-0.003c0.75,0 2.534,0.015 5.895,0.118l0.002,0l5.829,0.092c2.731,0 4.953,-2.234 4.953,-4.983c0.003,-1.923 -1.071,-3.639 -2.8,-4.475Z" style="fill-rule:nonzero;"/><circle cx="13.024" cy="9.228" r="2.848"/></svg>