<?xml version="1.0" encoding="UTF-8" standalone="no"?><!DOCTYPE svg PUBLIC "-//W3C//DTD SVG 1.1//EN" "http://www.w3.org/Graphics/SVG/1.1/DTD/svg11.dtd"><svg width="100%" height="100%" viewBox="0 0 125 35" version="1.1" xmlns="http://www.w3.org/2000/svg" xmlns:xlink="http://www.w3.org/1999/xlink" xml:space="preserve" style="fill-rule:evenodd;clip-rule:evenodd;stroke-linejoin:round;stroke-miterlimit:1.41421;"><path d="M107.029,0c9.461,0 17.143,7.682 17.143,17.143c0,9.462 -7.682,17.143 -17.143,17.143l-89.886,0c-9.461,0 -17.143,-7.681 -17.143,-17.143c0,-9.461 7.682,-17.143 17.143,-17.143l89.886,0ZM43.796,21.614l0,-0.886l-5.091,0l0,-3.614l4.608,0l0,-0.887l-4.608,0l0,-3.237l4.93,0l0,-0.887l-5.897,0l0,9.511l6.058,0ZM52.609,20.163l-0.027,0l-5.669,-8.06l-1.209,0l0,9.511l0.967,0l0,-8.14l0.027,0l5.669,8.14l1.209,0l0,-9.511l-0.967,0l0,8.06ZM59.205,21.614l0,-8.624l3.183,0l0,-0.887l-7.334,0l0,0.887l3.183,0l0,8.624l0.968,0ZM70.233,21.614l-2.74,-4.513c0.788,-0.072 1.39,-0.334 1.807,-0.786c0.416,-0.452 0.624,-1.01 0.624,-1.673c0,-0.85 -0.279,-1.486 -0.839,-1.907c-0.56,-0.421 -1.323,-0.632 -2.291,-0.632l-2.928,0l0,9.511l0.967,0l0,-4.419l1.612,0l2.606,4.419l1.182,0ZM79.758,21.614l-4.138,-9.511l-0.94,0l-4.138,9.511l1.129,0l1.048,-2.498l4.863,0l1.047,2.498l1.129,0ZM87.415,21.614l-2.741,-4.513c0.788,-0.072 1.391,-0.334 1.807,-0.786c0.417,-0.452 0.625,-1.01 0.625,-1.673c0,-0.85 -0.28,-1.486 -0.84,-1.907c-0.56,-0.421 -1.323,-0.632 -2.29,-0.632l-2.929,0l0,9.511l0.968,0l0,-4.419l1.612,0l2.606,4.419l1.182,0ZM77.205,18.229l-4.124,0l2.069,-4.997l2.055,4.997ZM66.553,12.99c0.43,0 0.794,0.043 1.094,0.128c0.3,0.085 0.54,0.203 0.719,0.356c0.179,0.152 0.309,0.329 0.39,0.53c0.08,0.202 0.121,0.414 0.121,0.638c0,0.233 -0.041,0.45 -0.121,0.652c-0.081,0.201 -0.211,0.376 -0.39,0.524c-0.179,0.148 -0.419,0.266 -0.719,0.356c-0.3,0.089 -0.664,0.134 -1.094,0.134l-1.72,0l0,-3.318l1.72,0ZM83.734,12.99c0.43,0 0.795,0.043 1.095,0.128c0.3,0.085 0.539,0.203 0.719,0.356c0.179,0.152 0.309,0.329 0.389,0.53c0.081,0.202 0.121,0.414 0.121,0.638c0,0.233 -0.04,0.45 -0.121,0.652c-0.08,0.201 -0.21,0.376 -0.389,0.524c-0.18,0.148 -0.419,0.266 -0.719,0.356c-0.3,0.089 -0.665,0.134 -1.095,0.134l-1.719,0l0,-3.318l1.719,0Z" style="fill:#fff;"/></svg>