<?xml version="1.0" encoding="UTF-8" standalone="no"?><!DOCTYPE svg PUBLIC "-//W3C//DTD SVG 1.1//EN" "http://www.w3.org/Graphics/SVG/1.1/DTD/svg11.dtd"><svg width="100%" height="100%" viewBox="0 0 40 40" version="1.1" xmlns="http://www.w3.org/2000/svg" xmlns:xlink="http://www.w3.org/1999/xlink" xml:space="preserve" style="fill-rule:evenodd;clip-rule:evenodd;stroke-linejoin:round;stroke-miterlimit:1.41421;"><g><path d="M27.987,11.52c0.259,0 0.472,0.213 0.472,0.473l0,14.28c0,0.217 -0.141,0.358 -0.34,0.453l-5.326,1.794l-5.667,-1.983l-5.043,1.955c-0.048,0.028 -0.104,0.028 -0.151,0.028c-0.26,0 -0.473,-0.213 -0.473,-0.472l0,-14.28c0,-0.217 0.142,-0.387 0.34,-0.453l5.327,-1.795l5.667,1.984l5.043,-1.984l0.151,0ZM22.3,27.4l-4.7,-1.5l0,-13.2l4.67,1.712l0.03,12.988ZM16.6,12.7l-4.104,1.4l0,13.2l4.104,-1.4l0,-13.2ZM27.5,12.702l-4.207,1.652l0.007,13.046l4.142,-1.45l0.058,-13.248Z" style="fill:#000;"/></g></svg>