<?xml version="1.0" encoding="UTF-8" standalone="no"?><!DOCTYPE svg PUBLIC "-//W3C//DTD SVG 1.1//EN" "http://www.w3.org/Graphics/SVG/1.1/DTD/svg11.dtd"><svg width="100%" height="100%" viewBox="0 0 75 101" version="1.1" xmlns="http://www.w3.org/2000/svg" xmlns:xlink="http://www.w3.org/1999/xlink" xml:space="preserve" style="fill-rule:evenodd;clip-rule:evenodd;stroke-linejoin:round;stroke-miterlimit:1.41421;"><ellipse cx="37.047" cy="39.256" rx="27.037" ry="28.008" style="fill:#fff;"/><path d="M37.777,100.178c0,0 -37.901,-33.889 -37.777,-63.008c0.117,-27.46 23.674,-37.25 37.944,-37.17c13.9,0.079 36.984,9.832 37.056,37.114c0.076,29.04 -37.223,63.064 -37.223,63.064ZM39.669,55.847l-3.53,0l0,7.479l3.53,0l0,-7.479ZM30.715,54.393l-3.057,-1.766l-3.74,6.478l3.057,1.765l3.74,-6.477l0,0ZM49.146,60.705l3.058,-1.766l-3.74,-6.477l-3.058,1.765l3.74,6.478ZM37.904,23.786c8.012,0 14.518,6.506 14.518,14.518c0,8.013 -6.506,14.518 -14.518,14.518c-8.013,0 -14.518,-6.505 -14.518,-14.518c0,-8.012 6.505,-14.518 14.518,-14.518ZM15.318,49.258l1.765,3.057l6.478,-3.74l-1.766,-3.057l-6.477,3.74l0,0ZM54.087,45.366l-1.765,3.057l6.478,3.74l1.765,-3.057l-6.478,-3.74ZM20.341,36.539l-7.48,0l0,3.53l7.48,0l0,-3.53ZM55.471,36.539l0,3.53l7.479,0l0,-3.53l-7.479,0ZM52.26,28.049l1.765,3.058l6.477,-3.74l-1.765,-3.057l-6.477,3.739l0,0ZM17.169,24.111l-1.765,3.057l6.478,3.74l1.765,-3.057l-6.478,-3.74l0,0ZM52.112,17.627l-3.057,-1.765l-3.74,6.477l3.057,1.765l3.74,-6.477ZM27.863,23.82l3.058,-1.765l-3.74,-6.478l-3.058,1.765l3.74,6.478ZM39.669,13.278l-3.53,0l0,7.48l3.53,0l0,-7.48l0,0Z" style="fill:#aaa;"/></svg>