<?xml version="1.0" encoding="UTF-8" standalone="no"?><!DOCTYPE svg PUBLIC "-//W3C//DTD SVG 1.1//EN" "http://www.w3.org/Graphics/SVG/1.1/DTD/svg11.dtd"><svg width="100%" height="100%" viewBox="0 0 163 47" version="1.1" xmlns="http://www.w3.org/2000/svg" xmlns:xlink="http://www.w3.org/1999/xlink" xml:space="preserve" style="fill-rule:evenodd;clip-rule:evenodd;stroke-linejoin:round;stroke-miterlimit:1.41421;"><g><path d="M29.299,21.796l-10.57,-0.011c1.193,9.466 13.661,10.656 13.661,10.656l0,2.091c0,0 -16.164,-0.659 -16.159,-14.294c0.006,-13.635 16.142,-13.468 16.142,-13.468l0.007,2.1c0,0 -13.035,0.803 -13.715,10.621l10.641,0.022l-0.007,2.283Z" style="fill:#fff;"/><path d="M81.049,21.796l-10.57,-0.011c1.193,9.466 13.661,10.656 13.661,10.656l0,2.091c0,0 -16.164,-0.659 -16.159,-14.294c0.006,-13.635 16.142,-13.468 16.142,-13.468l0.007,2.1c0,0 -13.035,0.803 -13.715,10.621l10.641,0.022l-0.007,2.283Z" style="fill:#fff;"/><path d="M49.172,6.77c0,0 -16.137,-0.167 -16.142,13.468c-0.006,13.635 16.159,14.294 16.159,14.294l0,-2.091c0,0 -13.637,-1.302 -13.752,-12.01c-0.115,-10.708 13.741,-11.561 13.741,-11.561l-0.006,-2.1Z" style="fill:#fff;"/><path d="M0.414,34.401l0.094,-27.687l6.939,-0.016c0,0 7.095,0.258 7.153,7.484c0.058,7.227 -7.671,7.636 -7.671,7.636l9.013,12.646l-3.152,0.029l-8.663,-12.559l-1.199,-0.03l-0.056,12.505l-2.458,-0.008ZM2.866,19.151l0.083,-9.949l4.039,-0.006c0,0 4.925,-0.085 4.946,5.098c0.019,4.52 -4.328,4.869 -4.328,4.869l-4.74,-0.012Z" style="fill:#fff;"/><path d="M51.78,34.401l0.094,-27.687l6.939,-0.016c0,0 7.095,0.258 7.153,7.484c0.058,7.227 -7.671,7.636 -7.671,7.636l9.013,12.646l-3.151,0.029l-8.664,-12.559l-1.199,-0.03l-0.056,12.505l-2.458,-0.008ZM54.233,19.151l0.082,-9.949l4.039,-0.006c0,0 4.925,-0.085 4.947,5.098c0.018,4.52 -4.329,4.869 -4.329,4.869l-4.739,-0.012Z" style="fill:#fff;"/><g><circle cx="103.358" cy="20.754" r="11.966" style="fill:#fff;"/><rect x="101.903" y="0.128" width="2.91" height="6.165" style="fill:#fff;"/><path d="M112.624,39.217l2.52,-1.455l-3.082,-5.339l-2.52,1.455l3.082,5.339Z" style="fill:#fff;"/><path d="M95.083,8.816l2.52,-1.454l-3.083,-5.339l-2.519,1.455l3.082,5.338Z" style="fill:#fff;"/><path d="M115.19,12.302l1.455,2.52l5.339,-3.082l-1.455,-2.52l-5.339,3.082Z" style="fill:#fff;"/><path d="M84.743,29.782l1.455,2.52l5.339,-3.082l-1.455,-2.52l-5.339,3.082Z" style="fill:#fff;"/><path d="M116.697,26.575l-1.455,2.519l5.339,3.083l1.455,-2.52l-5.339,-3.082Z" style="fill:#fff;"/><path d="M86.269,9.056l-1.455,2.52l5.339,3.082l1.455,-2.519l-5.339,-3.083Z" style="fill:#fff;"/><path d="M115.069,3.712l-2.52,-1.455l-3.082,5.339l2.519,1.455l3.083,-5.339Z" style="fill:#fff;"/><path d="M97.434,34.014l-2.52,-1.454l-3.083,5.338l2.52,1.455l3.083,-5.339Z" style="fill:#fff;"/><path d="M88.883,22.209l0,-2.91l-6.165,0l0,2.91l6.165,0Z" style="fill:#fff;"/><path d="M117.837,19.299l0,2.91l6.165,0l0,-2.91l-6.165,0Z" style="fill:#fff;"/><rect x="101.903" y="35.213" width="2.91" height="6.165" style="fill:#fff;"/></g><path d="M140.321,6.764c0,0 0.745,20.624 -14.176,27.57c-0.132,0.062 -0.284,0.072 -0.428,0.105c0,0 -0.18,-27.63 -0.18,-27.63l2.077,0l0.168,23.813c0,0 10.222,-6.927 10.37,-23.854c0,-0.002 2.169,-0.004 2.169,-0.004Z" style="fill:#fff;"/><path d="M151.761,24.5c-0.85,2.869 -1.413,6.023 -1.447,9.91c0,0.002 -2.169,0.004 -2.169,0.004c0,0 -0.745,-20.623 14.176,-27.57c0.132,-0.061 0.284,-0.072 0.428,-0.104c0,0 0.18,27.616 0.18,27.63l-2.077,0l-0.07,-9.889l-9.021,0.019ZM160.765,22.15l-0.081,-11.594c0,0 -5.157,3.488 -8.198,11.58l8.279,0.014Z" style="fill:#fff;"/><path d="M143.021,6.751l0.003,27.65l2.198,0.005l-0.003,-27.656l-2.198,0.001Z" style="fill:#fff;"/><path d="M143.021,0.001l0.015,5.161l2.105,0.006l0.078,-5.168l-2.198,0.001Z" style="fill:#fff;"/><text x="0px" y="44.802px" style="font-family:'EurostileBold', 'Eurostile', sans-serif;font-weight:700;font-size:6.16px;fill:#fff;">I<tspan x="3.099px 11.604px 19.769px 28.274px 31.441px 34.267px 37.434px 45.469px 53.684px 61.873px 70.087px 76.786px " y="44.802px 44.802px 44.802px 44.802px 44.802px 44.802px 44.802px 44.802px 44.802px 44.802px 44.802px 44.802px ">DRD - BOGOTÁ</tspan></text></g></svg>