<?xml version="1.0" encoding="UTF-8" standalone="no"?><!DOCTYPE svg PUBLIC "-//W3C//DTD SVG 1.1//EN" "http://www.w3.org/Graphics/SVG/1.1/DTD/svg11.dtd"><svg width="100%" height="100%" viewBox="0 0 125 35" version="1.1" xmlns="http://www.w3.org/2000/svg" xmlns:xlink="http://www.w3.org/1999/xlink" xml:space="preserve" style="fill-rule:evenodd;clip-rule:evenodd;stroke-linejoin:round;stroke-miterlimit:1.41421;"><path d="M107.029,0c9.461,0 17.143,7.682 17.143,17.143c0,9.462 -7.682,17.143 -17.143,17.143l-89.886,0c-9.461,0 -17.143,-7.681 -17.143,-17.143c0,-9.461 7.682,-17.143 17.143,-17.143l89.886,0ZM43.487,13.85c-0.322,-0.341 -0.707,-0.609 -1.155,-0.806c-0.448,-0.197 -0.967,-0.296 -1.558,-0.296c-0.609,0 -1.155,0.112 -1.639,0.336c-0.484,0.224 -0.893,0.524 -1.229,0.9c-0.336,0.376 -0.593,0.813 -0.773,1.31c-0.179,0.497 -0.268,1.019 -0.268,1.565c0,0.546 0.089,1.068 0.268,1.565c0.18,0.497 0.437,0.933 0.773,1.31c0.336,0.376 0.745,0.676 1.229,0.9c0.484,0.224 1.03,0.335 1.639,0.335c0.492,0 0.965,-0.06 1.417,-0.181c0.452,-0.121 0.858,-0.284 1.216,-0.49l0,-3.184l-2.27,0l0,-0.887l3.237,0l0,4.662c-0.537,0.313 -1.126,0.553 -1.766,0.719c-0.641,0.165 -1.252,0.248 -1.834,0.248c-0.708,0 -1.364,-0.125 -1.968,-0.376c-0.605,-0.251 -1.129,-0.598 -1.572,-1.041c-0.443,-0.443 -0.79,-0.97 -1.041,-1.579c-0.251,-0.609 -0.376,-1.276 -0.376,-2.001c0,-0.726 0.125,-1.393 0.376,-2.002c0.251,-0.609 0.598,-1.135 1.041,-1.578c0.443,-0.443 0.967,-0.791 1.572,-1.041c0.604,-0.251 1.26,-0.376 1.968,-0.376c0.761,0 1.417,0.105 1.968,0.315c0.551,0.211 1.041,0.531 1.471,0.961l-0.726,0.712ZM54.96,13.675c-0.421,-0.618 -1.035,-0.927 -1.841,-0.927c-0.251,0 -0.497,0.034 -0.739,0.101c-0.241,0.067 -0.459,0.17 -0.651,0.309c-0.193,0.139 -0.347,0.318 -0.464,0.537c-0.116,0.22 -0.174,0.477 -0.174,0.773c0,0.43 0.121,0.763 0.362,1c0.242,0.238 0.542,0.433 0.901,0.585c0.358,0.152 0.75,0.289 1.175,0.41c0.425,0.12 0.817,0.282 1.175,0.483c0.359,0.202 0.659,0.468 0.9,0.799c0.242,0.332 0.363,0.784 0.363,1.357c0,0.43 -0.092,0.817 -0.275,1.162c-0.184,0.345 -0.426,0.634 -0.726,0.867c-0.3,0.233 -0.636,0.412 -1.007,0.537c-0.372,0.125 -0.746,0.188 -1.122,0.188c-0.582,0 -1.135,-0.11 -1.659,-0.329c-0.524,-0.219 -0.969,-0.58 -1.337,-1.081l0.874,-0.632c0.206,0.349 0.492,0.629 0.859,0.84c0.368,0.21 0.802,0.315 1.303,0.315c0.242,0 0.484,-0.038 0.726,-0.114c0.242,-0.076 0.459,-0.188 0.651,-0.336c0.193,-0.147 0.352,-0.329 0.477,-0.544c0.126,-0.215 0.188,-0.461 0.188,-0.738c0,-0.332 -0.069,-0.607 -0.208,-0.827c-0.139,-0.219 -0.322,-0.403 -0.551,-0.55c-0.228,-0.148 -0.488,-0.271 -0.779,-0.37c-0.291,-0.098 -0.591,-0.197 -0.9,-0.295c-0.309,-0.099 -0.609,-0.211 -0.9,-0.336c-0.291,-0.126 -0.551,-0.284 -0.779,-0.477c-0.228,-0.193 -0.412,-0.434 -0.551,-0.725c-0.139,-0.292 -0.208,-0.656 -0.208,-1.095c0,-0.457 0.087,-0.856 0.262,-1.196c0.175,-0.34 0.407,-0.622 0.698,-0.846c0.292,-0.224 0.621,-0.39 0.988,-0.497c0.367,-0.108 0.743,-0.161 1.128,-0.161c0.538,0 1.026,0.085 1.464,0.255c0.439,0.17 0.847,0.47 1.223,0.9l-0.846,0.658ZM95.287,13.675c-0.421,-0.618 -1.035,-0.927 -1.841,-0.927c-0.25,0 -0.497,0.034 -0.738,0.101c-0.242,0.067 -0.459,0.17 -0.652,0.309c-0.193,0.139 -0.347,0.318 -0.463,0.537c-0.117,0.22 -0.175,0.477 -0.175,0.773c0,0.43 0.121,0.763 0.363,1c0.241,0.238 0.541,0.433 0.9,0.585c0.358,0.152 0.75,0.289 1.175,0.41c0.426,0.12 0.817,0.282 1.176,0.483c0.358,0.202 0.658,0.468 0.9,0.799c0.241,0.332 0.362,0.784 0.362,1.357c0,0.43 -0.092,0.817 -0.275,1.162c-0.184,0.345 -0.425,0.634 -0.726,0.867c-0.3,0.233 -0.635,0.412 -1.007,0.537c-0.372,0.125 -0.746,0.188 -1.122,0.188c-0.582,0 -1.135,-0.11 -1.659,-0.329c-0.524,-0.219 -0.969,-0.58 -1.336,-1.081l0.873,-0.632c0.206,0.349 0.492,0.629 0.86,0.84c0.367,0.21 0.801,0.315 1.303,0.315c0.241,0 0.483,-0.038 0.725,-0.114c0.242,-0.076 0.459,-0.188 0.652,-0.336c0.192,-0.147 0.351,-0.329 0.476,-0.544c0.126,-0.215 0.188,-0.461 0.188,-0.738c0,-0.332 -0.069,-0.607 -0.208,-0.827c-0.139,-0.219 -0.322,-0.403 -0.551,-0.55c-0.228,-0.148 -0.488,-0.271 -0.779,-0.37c-0.291,-0.098 -0.591,-0.197 -0.9,-0.295c-0.309,-0.099 -0.609,-0.211 -0.9,-0.336c-0.291,-0.126 -0.551,-0.284 -0.779,-0.477c-0.228,-0.193 -0.412,-0.434 -0.551,-0.725c-0.138,-0.292 -0.208,-0.656 -0.208,-1.095c0,-0.457 0.087,-0.856 0.262,-1.196c0.175,-0.34 0.408,-0.622 0.699,-0.846c0.291,-0.224 0.62,-0.39 0.987,-0.497c0.367,-0.108 0.743,-0.161 1.128,-0.161c0.538,0 1.026,0.085 1.465,0.255c0.438,0.17 0.846,0.47 1.222,0.9l-0.846,0.658ZM26.897,21.614l-2.74,-4.513c0.788,-0.072 1.39,-0.334 1.807,-0.786c0.416,-0.452 0.624,-1.01 0.624,-1.673c0,-0.85 -0.28,-1.486 -0.839,-1.907c-0.56,-0.421 -1.324,-0.632 -2.291,-0.632l-2.928,0l0,9.511l0.967,0l0,-4.419l1.612,0l2.606,4.419l1.182,0ZM34.554,21.614l0,-0.886l-5.091,0l0,-3.614l4.608,0l0,-0.887l-4.608,0l0,-3.237l4.93,0l0,-0.887l-5.897,0l0,9.511l6.058,0ZM47.88,21.614l0,-9.511l-0.967,0l0,9.511l0.967,0ZM60.978,21.614l0,-8.624l3.183,0l0,-0.887l-7.334,0l0,0.887l3.184,0l0,8.624l0.967,0ZM72.007,21.614l-2.741,-4.513c0.788,-0.072 1.391,-0.334 1.807,-0.786c0.416,-0.452 0.625,-1.01 0.625,-1.673c0,-0.85 -0.28,-1.486 -0.84,-1.907c-0.56,-0.421 -1.323,-0.632 -2.29,-0.632l-2.929,0l0,9.511l0.967,0l0,-4.419l1.612,0l2.606,4.419l1.183,0ZM81.531,21.614l-4.138,-9.511l-0.94,0l-4.137,9.511l1.128,0l1.048,-2.498l4.863,0l1.048,2.498l1.128,0ZM89.188,21.614l-2.74,-4.513c0.788,-0.072 1.39,-0.334 1.806,-0.786c0.417,-0.452 0.625,-1.01 0.625,-1.673c0,-0.85 -0.28,-1.486 -0.84,-1.907c-0.559,-0.421 -1.323,-0.632 -2.29,-0.632l-2.928,0l0,9.511l0.967,0l0,-4.419l1.612,0l2.606,4.419l1.182,0ZM104.153,12.99l0,-0.887l-5.897,0l0,9.511l6.058,0l0,-0.886l-5.091,0l0,-3.614l4.607,0l0,-0.887l-4.607,0l0,-3.237l4.93,0ZM78.979,18.229l-4.124,0l2.068,-4.997l2.056,4.997ZM23.216,12.99c0.43,0 0.795,0.043 1.095,0.128c0.3,0.085 0.54,0.203 0.719,0.356c0.179,0.152 0.309,0.329 0.389,0.53c0.081,0.202 0.121,0.414 0.121,0.638c0,0.233 -0.04,0.45 -0.121,0.652c-0.08,0.201 -0.21,0.376 -0.389,0.524c-0.179,0.148 -0.419,0.266 -0.719,0.356c-0.3,0.089 -0.665,0.134 -1.095,0.134l-1.719,0l0,-3.318l1.719,0ZM68.326,12.99c0.43,0 0.795,0.043 1.095,0.128c0.3,0.085 0.539,0.203 0.718,0.356c0.179,0.152 0.309,0.329 0.39,0.53c0.081,0.202 0.121,0.414 0.121,0.638c0,0.233 -0.04,0.45 -0.121,0.652c-0.081,0.201 -0.211,0.376 -0.39,0.524c-0.179,0.148 -0.418,0.266 -0.718,0.356c-0.3,0.089 -0.665,0.134 -1.095,0.134l-1.72,0l0,-3.318l1.72,0ZM85.507,12.99c0.43,0 0.795,0.043 1.095,0.128c0.3,0.085 0.54,0.203 0.719,0.356c0.179,0.152 0.309,0.329 0.389,0.53c0.081,0.202 0.121,0.414 0.121,0.638c0,0.233 -0.04,0.45 -0.121,0.652c-0.08,0.201 -0.21,0.376 -0.389,0.524c-0.179,0.148 -0.419,0.266 -0.719,0.356c-0.3,0.089 -0.665,0.134 -1.095,0.134l-1.719,0l0,-3.318l1.719,0Z" style="fill:#fff;"/></svg>