<?xml version="1.0" encoding="UTF-8" standalone="no"?><!DOCTYPE svg PUBLIC "-//W3C//DTD SVG 1.1//EN" "http://www.w3.org/Graphics/SVG/1.1/DTD/svg11.dtd"><svg width="100%" height="100%" viewBox="0 0 40 40" version="1.1" xmlns="http://www.w3.org/2000/svg" xmlns:xlink="http://www.w3.org/1999/xlink" xml:space="preserve" style="fill-rule:evenodd;clip-rule:evenodd;stroke-linejoin:round;stroke-miterlimit:1.41421;"><g><g><path d="M21.168,16.718c-1.225,-0.151 -2.097,-1.435 -1.919,-2.883c0.178,-1.448 1.336,-2.482 2.561,-2.331c1.225,0.151 2.098,1.435 1.919,2.883c-0.178,1.448 -1.336,2.481 -2.561,2.331ZM21.788,12.516c-0.882,-0.093 -1.438,0.67 -1.542,1.397c-0.114,0.795 0.412,1.744 1.019,1.779c0.733,0.042 1.413,-0.765 1.464,-1.426c0.056,-0.744 0.006,-1.649 -0.941,-1.75Z" style="fill:#444;fill-rule:nonzero;"/><path d="M24.612,28.34c1.169,-0.595 1.073,-1.874 0.762,-2.485l-1.451,-3.289l-0.109,-0.23c0.058,-0.12 0.186,-0.416 0.185,-0.489l0.857,0.008c0.851,-0.026 1.673,-0.529 1.688,-1.761c0.014,-1.173 -0.985,-1.627 -1.698,-1.643l-0.852,0c0,0 -0.12,-1.755 -1.299,-2.273c-1.139,-0.694 -3.035,-0.443 -3.035,-0.443c-0.748,0 -1.584,0.477 -2.12,0.999l-1.151,1.005c-0.773,0.775 -1.047,1.064 -1.075,1.698c-0.016,0.345 0.164,0.97 0.408,1.214l1.761,1.918c0.074,0.074 0.132,0.113 0.218,0.166l-0.311,0.346l-1.423,-1.308c-0.393,-0.307 -1.607,-0.372 -2.235,0.495c-0.208,0.287 -0.264,0.558 -0.274,0.912c-0.013,0.463 0.029,0.864 0.465,1.318l2.154,2.146c0.507,0.458 0.98,0.605 1.325,0.605c0.346,0 0.943,-0.279 1.419,-0.691l1.781,-1.784c0.32,-0.013 0.216,-0.012 0.507,-0.109l1.105,2.493c0.485,1.027 1.444,1.667 2.398,1.182ZM24.846,19.46c0.384,0 0.696,0.312 0.696,0.696c0,0.383 -0.312,0.696 -0.696,0.696l-0.842,-0.006l0,-1.403l0.842,0.017l0,0ZM20.305,23.765c-0.079,0 -0.155,0.031 -0.211,0.087l-2.186,2.186c-0.131,0.131 -0.306,0.204 -0.492,0.204c-0.186,0 -0.36,-0.073 -0.492,-0.204l-2.258,-2.258c-0.134,-0.135 -0.207,-0.314 -0.203,-0.505c0.003,-0.19 0.082,-0.366 0.222,-0.497c0.129,-0.12 0.296,-0.179 0.465,-0.179c0.187,0 0.375,0.072 0.517,0.214l1.538,1.538c0.117,0.116 0.306,0.116 0.423,0c0,0 1.436,-1.439 1.446,-1.455c0.016,0 0.033,0 0.049,0c0.354,-0.006 0.615,-0.232 0.856,-0.493c0.415,-0.45 0.679,-1.584 -0.042,-2.332l-0.457,-0.526l0.62,-0.617c0.103,-0.115 0.219,-0.424 -0.056,-0.685c-0.234,-0.222 -0.556,-0.15 -0.713,-0.01l-1.097,1.098c-0.117,0.117 -0.117,0.306 0,0.423l0.948,0.982c0.271,0.271 0.286,0.711 0.034,0.982c-0.13,0.14 -0.307,0.218 -0.497,0.222c-0.064,0.001 -0.304,-0.003 -0.505,-0.204l-1.667,-1.702c-0.131,-0.131 -0.204,-0.306 -0.204,-0.492c0,-0.186 0.073,-0.36 0.201,-0.489l1.722,-1.675c0.424,-0.413 0.984,-0.64 1.575,-0.64l1.197,0c1.084,0 1.967,0.883 1.967,1.967l0,2.36c0,1.489 -1.211,2.7 -2.7,2.7ZM23.624,27.403c-0.172,-0.071 -0.306,-0.205 -0.378,-0.378l-1.145,-2.672c0.439,-0.243 0.817,-0.583 1.105,-0.991l1.326,3.131c0.071,0.172 0.071,0.361 0,0.533c-0.071,0.172 -0.204,0.305 -0.377,0.376c-0.085,0.036 -0.175,0.054 -0.265,0.054l-0.001,0c-0.09,0 -0.179,-0.018 -0.265,-0.053Z" style="fill:#444;fill-rule:nonzero;"/></g></g></svg>