<?xml version="1.0" encoding="UTF-8" standalone="no"?><!DOCTYPE svg PUBLIC "-//W3C//DTD SVG 1.1//EN" "http://www.w3.org/Graphics/SVG/1.1/DTD/svg11.dtd"><svg width="100%" height="100%" viewBox="0 0 51 51" version="1.1" xmlns="http://www.w3.org/2000/svg" xmlns:xlink="http://www.w3.org/1999/xlink" xml:space="preserve" style="fill-rule:evenodd;clip-rule:evenodd;stroke-linejoin:round;stroke-miterlimit:1.41421;"><path d="M26.807,42.569l-3.53,0l0,7.48l3.53,0l0,-7.48ZM17.854,41.115l-3.057,-1.766l-3.74,6.478l3.057,1.765l3.74,-6.477ZM36.285,47.427l3.057,-1.765l-3.74,-6.478l-3.057,1.765l3.74,6.478ZM25.042,10.508c8.013,0 14.518,6.506 14.518,14.518c0,8.013 -6.505,14.518 -14.518,14.518c-8.012,0 -14.518,-6.505 -14.518,-14.518c0,-8.012 6.506,-14.518 14.518,-14.518ZM2.456,35.98l1.766,3.057l6.477,-3.74l-1.765,-3.057l-6.478,3.74ZM41.226,32.088l-1.765,3.057l6.477,3.74l1.765,-3.057l-6.477,-3.74ZM7.48,23.261l-7.48,0l0,3.53l7.48,0l0,-3.53ZM42.609,23.261l0,3.53l7.48,0l0,-3.53l-7.48,0ZM39.398,14.771l1.765,3.058l6.478,-3.74l-1.765,-3.057l-6.478,3.739ZM4.308,10.833l-1.765,3.057l6.477,3.74l1.765,-3.057l-6.477,-3.74ZM39.251,4.349l-3.058,-1.765l-3.739,6.477l3.057,1.765l3.74,-6.477ZM15.002,10.542l3.057,-1.765l-3.74,-6.478l-3.057,1.766l3.74,6.477ZM26.807,0l-3.53,0l0,7.48l3.53,0l0,-7.48Z" style="fill:#fff;"/></svg>